<?xml version="1.0" standalone="no"?><!DOCTYPE svg PUBLIC "-//W3C//DTD SVG 1.1//EN" "http://www.w3.org/Graphics/SVG/1.1/DTD/svg11.dtd"><svg t="1622692725587" class="icon" viewBox="0 0 1280 1024" version="1.1" xmlns="http://www.w3.org/2000/svg" p-id="3604" xmlns:xlink="http://www.w3.org/1999/xlink" width="250" height="200"><defs><style type="text/css"></style></defs><path d="M554.64194766 141.21142578c12.79220581 0 23.71810889 4.50508117 32.77152968 13.64501953 9.05960107 9.01016235 13.59558082 19.95460487 13.59558153 32.6911924 0 13.1320951-4.57305932 24.07653833-13.76861596 32.95692466l-245.12832642 245.09124757h722.35794044c12.79838538 0 23.69338989 4.50508117 32.81478882 13.64501953 9.02252221 9.01016235 13.56468224 19.94842529 13.56468224 32.69119239 0 12.87872338-4.54216003 23.81698632-13.57086182 32.82714867-9.11521935 9.01016235-20.01022315 13.51524353-32.80242896 13.51524353H342.11829606l245.12214685 245.09124756c9.19555664 9.01016235 13.76861596 19.95460487 13.76861596 32.9507444 0 12.8725431-4.53598046 23.81698632-13.59558153 32.82714867-9.05342078 9.13993836-19.98550415 13.64501953-32.77152968 13.64501953-13.05175781 0-24.03945947-4.50508117-32.95692467-13.38546753L197.2573804 545.01872253C188.34609476 535.62541175 183.87809244 524.54501367 183.87809244 512.06179786c0-12.60681153 4.46800232-23.55125404 13.37928796-32.95074439l324.42764259-324.37820459C530.8620402 145.84628296 541.84356156 141.33502221 554.64194766 141.33502221V141.21142578z" p-id="3605"></path></svg>