<?xml version="1.0" standalone="no"?><!DOCTYPE svg PUBLIC "-//W3C//DTD SVG 1.1//EN" "http://www.w3.org/Graphics/SVG/1.1/DTD/svg11.dtd"><svg t="1622692711383" class="icon" viewBox="0 0 1280 1024" version="1.1" xmlns="http://www.w3.org/2000/svg" p-id="3473" xmlns:xlink="http://www.w3.org/1999/xlink" width="250" height="200"><defs><style type="text/css"></style></defs><path d="M740.07331363 141.33502221c13.09501624 0 24.03945947 4.38766503 32.96928381 13.39164711l324.44000245 324.316406C1106.41860453 488.05323768 1110.84952799 498.9976809 1110.84952799 512c0 13.1320951-4.43092346 24.07653833-13.3669281 32.95692468l-324.44000245 324.44000244c-8.93600464 9.01634193-19.87426758 13.3916471-32.96928381 13.3916471-13.2618711 0-24.34844947-4.37530518-33.11759996-13.1320951-8.80622864-8.88656592-13.22479224-19.96078515-13.22479225-33.21647668 0-13.0023191 4.48036218-23.94676232 13.37928796-32.95692467L952.66494265 558.34857177H230.24520364c-12.79220581 0-23.69338989-4.51126075-32.77153038-13.5214231C188.40789262 535.69338989 183.87809244 524.87872338 183.87809244 512c0-12.74894738 4.52980018-23.68721032 13.59558082-32.70355224C206.55799333 470.16268897 217.45917741 465.65142823 230.23902408 465.65142823h722.42591857L707.11020938 220.51692223c-8.89892578-8.88038635-13.37928796-19.95460487-13.37928796-32.95692467 0-13.2618711 4.4185636-24.33609033 13.22479225-33.08670068C715.72486344 145.58673096 726.81144182 141.21142578 740.07331363 141.21142578v0.12359643z" p-id="3474"></path></svg>